<svg width="1061" height="263" viewBox="0 0 1061 263" fill="none" xmlns="http://www.w3.org/2000/svg">
<path d="M371.441 195C367.71 195 364.815 193.971 362.756 191.912C360.697 189.853 359.668 187.023 359.668 183.42V70.322C359.668 66.5907 360.762 63.6313 362.949 61.444C365.265 59.128 368.289 57.97 372.02 57.97C375.88 57.97 378.904 59.128 381.091 61.444C383.407 63.6313 384.565 66.5907 384.565 70.322V174.542H438.798C446.518 174.542 450.378 177.952 450.378 184.771C450.378 191.59 446.518 195 438.798 195H371.441ZM538.725 169.138C540.913 169.138 542.65 169.974 543.936 171.647C545.352 173.32 546.059 175.571 546.059 178.402C546.059 182.391 543.679 185.736 538.918 188.438C534.544 190.883 529.59 192.877 524.057 194.421C518.525 195.836 513.249 196.544 508.231 196.544C493.049 196.544 481.018 192.169 472.14 183.42C463.262 174.671 458.823 162.705 458.823 147.522C458.823 137.872 460.753 129.316 464.613 121.853C468.473 114.39 473.877 108.6 480.825 104.483C487.902 100.366 495.879 98.307 504.757 98.307C513.249 98.307 520.648 100.173 526.952 103.904C533.257 107.635 538.146 112.911 541.62 119.73C545.094 126.549 546.831 134.591 546.831 143.855C546.831 149.388 544.387 152.154 539.497 152.154H482.562C483.334 161.032 485.843 167.594 490.089 171.84C494.335 175.957 500.511 178.016 508.617 178.016C512.735 178.016 516.337 177.501 519.425 176.472C522.642 175.443 526.245 174.027 530.233 172.226C534.093 170.167 536.924 169.138 538.725 169.138ZM505.336 115.291C498.774 115.291 493.499 117.35 489.51 121.467C485.65 125.584 483.334 131.503 482.562 139.223H526.18C525.923 131.374 523.993 125.456 520.39 121.467C516.788 117.35 511.77 115.291 505.336 115.291ZM614.268 178.209C620.702 178.595 623.918 181.49 623.918 186.894C623.918 189.982 622.632 192.362 620.058 194.035C617.614 195.579 614.075 196.222 609.443 195.965L604.232 195.579C582.616 194.035 571.808 182.455 571.808 160.839V118.765H562.158C558.684 118.765 555.982 117.993 554.052 116.449C552.251 114.905 551.35 112.653 551.35 109.694C551.35 106.735 552.251 104.483 554.052 102.939C555.982 101.395 558.684 100.623 562.158 100.623H571.808V82.867C571.808 79.393 572.902 76.6267 575.089 74.568C577.277 72.5093 580.236 71.48 583.967 71.48C587.57 71.48 590.465 72.5093 592.652 74.568C594.84 76.6267 595.933 79.393 595.933 82.867V100.623H612.338C615.812 100.623 618.45 101.395 620.251 102.939C622.181 104.483 623.146 106.735 623.146 109.694C623.146 112.653 622.181 114.905 620.251 116.449C618.45 117.993 615.812 118.765 612.338 118.765H595.933V162.576C595.933 172.097 600.308 177.18 609.057 177.823L614.268 178.209ZM670.651 196.544C656.627 196.544 645.304 193.778 636.683 188.245C632.566 185.8 630.507 182.326 630.507 177.823C630.507 175.25 631.215 173.191 632.63 171.647C634.046 169.974 635.783 169.138 637.841 169.138C640.029 169.138 643.052 170.167 646.912 172.226C651.03 174.156 654.761 175.636 658.106 176.665C661.58 177.694 665.955 178.209 671.23 178.209C676.634 178.209 680.816 177.308 683.775 175.507C686.863 173.706 688.407 171.197 688.407 167.98C688.407 165.793 687.764 164.056 686.477 162.769C685.319 161.482 683.132 160.324 679.915 159.295C676.827 158.137 672.067 156.85 665.633 155.435C654.182 153.119 645.947 149.838 640.929 145.592C636.04 141.346 633.595 135.492 633.595 128.029C633.595 122.368 635.268 117.285 638.613 112.782C641.959 108.15 646.526 104.612 652.316 102.167C658.235 99.5937 664.926 98.307 672.388 98.307C677.792 98.307 683.003 99.0147 688.021 100.43C693.039 101.717 697.543 103.647 701.531 106.22C705.649 108.793 707.707 112.203 707.707 116.449C707.707 119.022 707 121.21 705.584 123.011C704.169 124.684 702.432 125.52 700.373 125.52C698.958 125.52 697.543 125.263 696.127 124.748C694.841 124.105 693.168 123.204 691.109 122.046C687.378 120.116 684.161 118.701 681.459 117.8C678.757 116.771 675.412 116.256 671.423 116.256C666.663 116.256 662.867 117.221 660.036 119.151C657.334 121.081 655.983 123.719 655.983 127.064C655.983 130.281 657.399 132.725 660.229 134.398C663.06 136.071 668.528 137.743 676.634 139.416C685.255 141.217 692.01 143.276 696.899 145.592C701.789 147.908 705.263 150.803 707.321 154.277C709.509 157.751 710.602 162.19 710.602 167.594C710.602 176.343 706.935 183.356 699.601 188.631C692.396 193.906 682.746 196.544 670.651 196.544ZM831.295 64.339C833.354 59.9643 836.764 57.777 841.524 57.777C844.741 57.777 847.636 58.8063 850.209 60.865C852.783 62.9237 854.069 65.497 854.069 68.585C854.069 70.0003 853.683 71.6087 852.911 73.41L799.45 188.438C798.292 190.883 796.491 192.813 794.046 194.228C791.73 195.515 789.221 196.158 786.519 196.158C783.817 196.158 781.244 195.515 778.799 194.228C776.483 192.813 774.746 190.883 773.588 188.438L720.32 73.41C719.548 71.6087 719.162 70.0647 719.162 68.778C719.162 65.5613 720.449 62.9237 723.022 60.865C725.724 58.8063 728.748 57.777 732.093 57.777C734.28 57.777 736.275 58.356 738.076 59.514C740.006 60.5433 741.486 62.1517 742.515 64.339L786.905 162.962L831.295 64.339ZM932.825 98.693C936.557 98.693 939.516 99.7223 941.703 101.781C943.891 103.84 944.984 106.606 944.984 110.08V184.964C944.984 188.309 943.826 191.011 941.51 193.07C939.323 195.129 936.428 196.158 932.825 196.158C929.351 196.158 926.585 195.193 924.526 193.263C922.468 191.333 921.438 188.695 921.438 185.35V180.525C918.479 185.672 914.49 189.66 909.472 192.491C904.454 195.193 898.793 196.544 892.488 196.544C869.328 196.544 857.748 183.549 857.748 157.558V110.08C857.748 106.606 858.842 103.84 861.029 101.781C863.217 99.7223 866.112 98.693 869.714 98.693C873.446 98.693 876.405 99.7223 878.592 101.781C880.78 103.84 881.873 106.606 881.873 110.08V157.751C881.873 164.442 883.224 169.395 885.926 172.612C888.628 175.829 892.874 177.437 898.664 177.437C905.355 177.437 910.695 175.25 914.683 170.875C918.801 166.372 920.859 160.453 920.859 153.119V110.08C920.859 106.606 921.953 103.84 924.14 101.781C926.328 99.7223 929.223 98.693 932.825 98.693ZM1044.78 169.138C1046.97 169.138 1048.71 169.974 1050 171.647C1051.41 173.32 1052.12 175.571 1052.12 178.402C1052.12 182.391 1049.74 185.736 1044.98 188.438C1040.6 190.883 1035.65 192.877 1030.12 194.421C1024.58 195.836 1019.31 196.544 1014.29 196.544C999.108 196.544 987.078 192.169 978.2 183.42C969.322 174.671 964.883 162.705 964.883 147.522C964.883 137.872 966.813 129.316 970.673 121.853C974.533 114.39 979.937 108.6 986.885 104.483C993.961 100.366 1001.94 98.307 1010.82 98.307C1019.31 98.307 1026.71 100.173 1033.01 103.904C1039.32 107.635 1044.21 112.911 1047.68 119.73C1051.15 126.549 1052.89 134.591 1052.89 143.855C1052.89 149.388 1050.45 152.154 1045.56 152.154H988.622C989.394 161.032 991.903 167.594 996.149 171.84C1000.39 175.957 1006.57 178.016 1014.68 178.016C1018.79 178.016 1022.4 177.501 1025.48 176.472C1028.7 175.443 1032.3 174.027 1036.29 172.226C1040.15 170.167 1042.98 169.138 1044.78 169.138ZM1011.4 115.291C1004.83 115.291 999.558 117.35 995.57 121.467C991.71 125.584 989.394 131.503 988.622 139.223H1032.24C1031.98 131.374 1030.05 125.456 1026.45 121.467C1022.85 117.35 1017.83 115.291 1011.4 115.291Z" fill="black"/>
<circle cx="131.5" cy="195.5" r="46.5" fill="#5046E5"/>
<circle cx="46.5" cy="80.5" r="46.5" fill="#5046E5"/>
<circle cx="219.5" cy="80.5" r="46.5" fill="#5046E5"/>
</svg>
